<?xml version="1.0" encoding="utf-8"?>
<!-- Generator: Adobe Illustrator 26.5.0, SVG Export Plug-In . SVG Version: 6.00 Build 0)  -->
<svg version="1.1" id="Camada_1" xmlns="http://www.w3.org/2000/svg" xmlns:xlink="http://www.w3.org/1999/xlink" x="0px" y="0px"
	 viewBox="0 0 934 328" style="enable-background:new 0 0 934 328;" xml:space="preserve">
<style type="text/css">
	.st0{fill:none;stroke:#000000;stroke-width:0.4665;stroke-miterlimit:10;}
	.st1{fill:none;stroke:#000000;stroke-width:0.75;stroke-linecap:round;stroke-miterlimit:10;stroke-dasharray:0.5,4;}
</style>
<g>
	<path class="st0" d="M87.1,275.8c5.36-0.04,10.72,0.13,16.09-0.14c3.89-0.19,7.8-0.2,11.7-0.2c35.91-0.01,71.82,0,107.73-0.01
		c3.23,0,6.45-0.02,9.69-0.15c8.83-0.34,17.66-0.59,26.5-0.77c13.59-0.27,27.18-0.21,40.76-0.77c8.58-0.35,17.18-0.56,25.76-0.74
		c9.75-0.21,19.5-0.07,29.25-0.41c3.47-0.12,6.94-0.28,10.41-0.5c4.25-0.27,8.5-0.6,12.75-0.96c3.21-0.27,6.42-0.61,9.63-0.94
		c4.12-0.41,8.23-0.86,12.35-1.25c3.27-0.31,6.56-0.52,9.83-0.86c4.18-0.43,8.35-0.94,12.52-1.42"/>
	<path class="st0" d="M87.15,293.37c21.22,0,42.44,0.29,63.66-0.07c30.06-0.51,60.12,0.05,90.17-0.36
		c13.05-0.18,26.1-0.07,39.14-0.34c13.04-0.27,26.08-0.55,39.13-0.77c10.79-0.18,21.58-0.28,32.37-0.25
		c6.96,0.02,13.88-0.65,20.82-0.85c2.38-0.07,4.75-0.16,7.13-0.19c4.51-0.06,8.99-0.58,13.49-0.96c1.7-0.14,3.4-0.33,5.1-0.39
		c7.98-0.27,15.93-1.06,23.89-1.64"/>
	<path class="st0" d="M87.11,267.39c1.58-0.07,3.16-0.16,4.75-0.21c9.14-0.24,18.28-0.08,27.41-0.37c12.91-0.4,25.83,0,38.75-0.35
		c14.32-0.39,28.64-0.09,42.96-0.15c0.78,0,1.59,0.15,2.32-0.28l0.07,0.13c1.4,0.39,2.78-0.04,4.17-0.07
		c9.07-0.14,18.13-0.43,27.19-0.74c6.39-0.22,12.78-0.25,19.16-0.49c6.14-0.23,12.26-0.8,18.4-0.92c6.82-0.14,13.61-0.55,20.42-0.9
		c0.53-0.09,1.05-0.17,1.58-0.26c1.09-0.04,2.19-0.03,3.28-0.12c3.51-0.3,7.01-0.66,10.52-0.96c3.63-0.31,7.26-0.6,10.9-0.84
		c5.51-0.36,11.03-0.69,16.55-1.01c2.91-0.17,5.82-0.29,8.74-0.42c0.49-0.02,0.97-0.1,1.41-0.32c2.74-0.15,5.42-0.72,8.13-1.08
		c5.72-0.75,11.42-1.7,17.07-2.86c10.05-2.06,19.98-4.72,30.1-6.5c7-1.23,14.03-2.32,21.09-3.2"/>
	<path class="st0" d="M87.13,262.3c7.29-0.44,14.58-0.95,21.88-1.31c5.11-0.26,10.23-0.32,15.35-0.48c0.73-0.02,1.47,0,2.19-0.06
		c5.83-0.49,11.67-0.75,17.51-0.92c5.42-0.15,10.83-0.38,16.24-0.73c7.41-0.47,14.84-0.79,22.25-1.2
		c6.08-0.34,12.15-0.78,18.24-1.01c1.7-0.06,2.75-0.58,3.33-2.13c0.11-0.28,0.28-0.54,0.42-0.81c3.52-6.54,7.05-13.08,10.55-19.64
		c0.47-0.89,0.96-1.41,2.09-1.33c3.16,0.22,6.34-0.03,9.5,0.31c1.35,0.15,2.65-0.06,3.97-0.39c7.61-1.92,15.18-3.99,22.73-6.17
		c0.65-0.19,1.29-0.34,1.97-0.31c3.35,0.17,6.7,0.26,10.03,0.54c1.24,0.1,2.42,0.07,3.62-0.17c1.49-0.3,2.97-0.68,4.47-0.92
		c2.4-0.4,4.74-1.11,7.18-1.3c3.65-0.28,7.31-0.28,10.96-0.32c1.12-0.01,2.12-0.25,3.12-0.79c5.41-2.92,10.74-6,16.32-8.6
		c5.25-2.45,10.38-5.11,15.36-8.07c1.99-1.18,4.09-2.2,5.96-3.56c3.35-2.43,6.57-5.04,9.83-7.6c1.44-1.12,2.88-2.22,4.05-3.67
		c5.23-6.5,10.42-13.04,15.9-19.33c3.6-4.13,6.95-8.49,10.85-12.35c3.03-3,6.02-6.04,9.06-9.04c0.92-0.91,1.67-1.91,2.25-3.06
		c2.6-5.1,5.26-10.17,7.85-15.27c1.69-3.31,3.58-6.52,4.97-9.97c3.75-9.32,7.46-18.65,11.12-28c0.74-1.9,1.67-3.61,3.12-5.07
		c1.12-1.12,2.06-2.4,3.13-3.57c2.54-2.79,4.87-5.77,7.54-8.45"/>
	<path class="st0" d="M203.38,266.16c0,0-0.07-0.13-0.07-0.13c1.41-3.09,5.11-8.76,5.11-8.76c0.32-0.14,1.48-2.55,1.48-2.55
		c2.13-2.22,3.43-5.3,5.11-7.92c1.3-2.99,15.11,1.68,20.94-1.07c6.6-0.76,13.21-2.58,19.84-2.65c4.81,0.61,9.5,2.29,14.4,1.79
		c6.88-1.11,13.83-0.81,20.69,0.35c6.64,0.31,12.39-4.46,18.91-5.45c6.08-1.32,11.96-3.26,17.67-5.72
		c4.81-2.78,10.45-1.56,15.74-1.69c8.61-2.69,15.78-9.58,24.87-11.85c13.01-6.07,20.59-18.89,30.07-29.01
		c10.03-8.57,10.08-10.28,23.94-8.91"/>
	<path class="st0" d="M87.1,266.47c1.26,0.37,2.51,0.02,3.77-0.01c2.32-0.06,4.63-0.01,6.95-0.05c4.36-0.08,8.71-0.36,13.07-0.38
		c4.42-0.02,8.84-0.16,13.25-0.42c4.26-0.25,8.52-0.13,12.77-0.27c1.05-0.04,2.08,0.47,3.06,0.27c1.4-0.28,2.78-0.23,4.18-0.3
		c3.06-0.15,6.14-0.22,9.18-0.48c3.7-0.31,7.42,0.14,11.1-0.52c1.18-0.21,2.43-0.08,3.65-0.05c3.71,0.1,7.43-0.29,11.12,0.31
		c1.05,0.17,2.04-0.28,3.07-0.33c2.67-0.12,5.36-0.19,8.01-0.18c3.58,0.02,7.15-0.55,10.72-0.18c1.58,0.16,2.38-0.56,3.1-1.91
		c3.66-6.87,7.44-13.68,11.15-20.53c0.41-0.76,0.93-1.05,1.75-0.97c2.05,0.2,4.1,0.45,6.15,0.55c2.82,0.13,5.6,0.63,8.46-0.11
		c7.28-1.89,14.69-3.21,22.05-4.74c0.79-0.16,1.59-0.15,2.37-0.06c3.67,0.43,7.33,0.95,11,1.33c0.94,0.1,1.92-0.16,2.88-0.3
		c2.93-0.44,5.86-1,8.8-1.33c1.81-0.2,3.67-0.21,5.47-0.02c1.74,0.18,3.48,0.15,5.22,0.29c0.48,0.04,1.01-0.08,1.46,0.06
		c1.58,0.5,2.97,0,4.38-0.66c6.72-3.16,13.49-6.18,20.54-8.54c4.06-1.36,7.72-3.6,11.62-5.29c4.91-2.13,9.01-5.49,13.43-8.37
		c2.88-1.88,5.4-4.14,7.71-6.66c4.07-4.44,8.28-8.75,12.18-13.34c6.76-7.95,14.2-15.22,21.6-22.55c0.88-0.87,1.6-1.83,2.17-2.91
		c3.24-6.21,6.42-12.44,9.72-18.62c2.93-5.49,5.01-11.34,7.34-17.09c2.56-6.31,5.06-12.64,7.53-18.98c0.3-0.77,0.75-1.36,1.29-1.94
		c1.12-1.2,2.26-2.39,3.39-3.57c2.76-2.91,5.24-6.1,8.29-8.72"/>
	<path class="st0" d="M89.72,259.19c37.12-0.98,74.07-4.39,111.17-5.93c5.45,0.53,11.52-25.25,16.65-25.03
		c16.88,2.48,31.92-9.2,48.88-5.95c8.27-2.22,15.98-6.07,24.89-5.25c9.11-2.62,17.07-9.03,26.13-12.26
		c16.2-7.2,27.04-21.42,38.01-34.75c8.73-11.27,19-21.39,28.51-31.78c6.76-13.05,14.26-25.94,17.22-40.41
		c6.58-20.33,4.53-25.34,20.65-41.28"/>
	<path class="st0" d="M332.42,232.26c0.67-0.44,1.43-0.66,2.18-0.91c2.77-0.92,5.53-1.88,8.31-2.74c1.37-0.42,2.56-1.08,3.57-2.09
		c4.33-4.28,8.96-8.24,13.15-12.67c3.51-3.71,6.88-7.58,10.56-11.12c3.73-3.58,7.74-6.85,11.69-10.2c1.42-1.21,2.49-2.63,3.22-4.32
		c0.12-0.14,0.23-0.29,0.35-0.43c0,0,0.4-0.73,0.4-0.73c0.49-0.21,0.65-0.71,0.91-1.11c3-4.66,5.99-9.33,8.99-13.98
		c0.36-0.56,0.73-1.14,1.21-1.59c3.76-3.47,7.57-6.89,11.31-10.38c0.76-0.71,1.51-0.9,2.48-0.73c3.77,0.66,7.54,1.31,11.31,1.96"/>
	<path class="st0" d="M294.3,262.77c4.56-1.87,9.09-3.86,13.88-5.01c7.47-1.8,14.77-4.08,21.9-6.94c1.1-0.44,2.2-0.62,3.38-0.6
		c3.29,0.04,6.58-0.02,9.87,0.03c1.08,0.01,2.03-0.19,2.94-0.77c0.82-0.53,1.71-0.94,2.53-1.46c6.03-3.87,12.53-6.74,19.32-8.96
		c1.71-0.56,3.2-1.41,4.6-2.53c3-2.39,6.04-4.73,9.1-7.04c1.13-0.85,2.11-1.83,3.01-2.91c3.31-3.98,6.65-7.94,9.95-11.93
		c1.21-1.46,2.55-2.76,4.05-3.93c3.17-2.47,6.31-4.99,9.41-7.54c0.77-0.63,1.52-0.88,2.49-0.78c3.33,0.32,10.91,1.02,11.37,1.07"/>
	<path class="st0" d="M345.68,259.09c1.42-1.05,3.04-1.75,4.56-2.63c6.17-3.56,12.7-6.39,19.13-9.42c4.68-2.2,9.02-5.04,13.53-7.57
		c0.99-0.55,1.8-1.44,2.64-2.23c3.32-3.13,6.62-6.27,9.91-9.44c0.72-0.69,1.52-1.19,2.44-1.56c3.39-1.34,6.78-2.67,10.16-4.05
		c0.95-0.39,1.83-0.44,2.83-0.2c3.72,0.87,7.46,1.65,11.2,2.46"/>
	<path class="st0" d="M209.89,254.72c-0.21-0.68,0.23-1.17,0.51-1.69c1.59-2.88,3.23-5.73,4.79-8.62c0.44-0.81,0.96-1.15,1.88-1.05
		c2.54,0.29,5.11,0.35,7.61,0.83c3.4,0.65,6.64,0.07,9.92-0.65c5.46-1.19,11.02-1.86,16.52-2.81c4.07-0.7,7.86,0.33,11.73,1
		c3.15,0.54,6.25,0.73,9.43,0.31c2.59-0.34,5.22-0.47,7.83-0.52c2.68-0.05,5.3,0.69,7.96,0.94c1.21,0.12,2.4,0.37,3.61,0.53
		c1.23,0.17,2.41,0.04,3.58-0.43c7.28-2.94,14.82-5.11,22.32-7.4c7.2-2.2,14.36-4.66,20.81-8.75c1.39-0.88,2.85-1.65,4.32-2.39
		c1.38-0.69,2.64-1.53,3.74-2.58c5.09-4.81,10.49-9.3,15.24-14.46c2.72-2.96,5.41-5.96,8.25-8.79c2.28-2.28,4.77-4.34,7.19-6.49
		c1.5-1.33,3-2.67,4.55-3.95c1.3-1.07,2.21-2.4,3-3.86c3.81-7.01,7.77-13.94,11.39-21.05c2.21-4.33,3.92-8.91,5.82-13.39
		c2.4-5.66,4.77-11.33,7.13-17.01c0.32-0.76,0.84-1.33,1.43-1.87c3.78-3.45,7.35-7.12,11.03-10.69c0.17-0.17,0.38-0.29,0.58-0.44"/>
	<path class="st0" d="M385.86,187.04c-0.01-0.64,0.3-1.16,0.6-1.7c2.58-4.69,5.19-9.36,7.71-14.07c1.44-2.69,3.01-5.22,5.19-7.43
		c3.37-3.42,6.36-7.2,9.74-10.6c3.09-3.1,6.29-6.1,9.42-9.16c1.17-1.14,2.23-2.41,3.57-3.38"/>
	<path class="st0" d="M42.38,266.16c3.42-1.07,6.87-2.08,10.26-3.24c1.62-0.56,3.2-0.61,4.85-0.4c2.72,0.34,5.45,0.58,8.16,0.97
		c2.16,0.31,4.25-0.04,6.34-0.44c6.58-1.25,13.21-2.14,19.83-3.12c1.21-0.18,2.4-0.14,3.62,0.12c3.15,0.69,6.32,1.3,9.48,1.92
		c0.9,0.18,1.79,0.25,2.72,0.16c2.91-0.28,5.83-0.44,8.73-0.78c3.51-0.4,6.91,0.41,10.34,0.85c1.68,0.21,3.39,0.3,5.01,0.84"/>
</g>
<g>
	<path class="st1" d="M891.32,310.51c-0.77-0.83-1.79-0.64-2.74-0.64c-5.31-0.03-10.62-0.01-15.92-0.02
		c-2.23-0.07-4.48,0.2-6.71-0.21c-3-0.08-6-0.02-9-0.04c-6.4-0.18-12.8-0.25-19.2-0.2c-2.09-0.1-4.21,0.29-6.27-0.34
		c-3.31-0.23-6.62-0.05-9.94-0.12c-12.58,0.01-25.15,0-37.73,0c-2.1-0.1-4.23,0.3-6.3-0.33c-3.72-0.24-7.43-0.05-11.15-0.12
		c-2.14,0.01-4.28,0.01-6.42,0c-3.7,0.01-7.39,0-11.09,0c-2.01-0.1-4.05,0.27-6.04-0.27c-1.06-0.23-2.13-0.14-3.19-0.17
		c-0.66,0-1.33,0-1.99,0c-1.6,0.01-3.2,0-4.8,0c-0.55,0-1.09,0-1.64,0c-2.23,0.01-4.46,0-6.69,0c-3.68,0.01-7.36,0-11.03,0
		c-2.01-0.1-4.04,0.27-6.03-0.27c-0.92-0.21-1.86-0.15-2.79-0.18c-0.79,0-1.58,0-2.37,0c-1.57,0-3.13,0.01-4.7-0.01
		c-1.05,0.1-2.07-0.33-3.12-0.19c-2.14,0.41-4.3,0.11-6.45,0.19c-9.7,0.01-19.4,0-29.1,0c-1.05,0-2.11,0.1-3.13-0.27
		c-1.56-0.29-3.13-0.12-4.7-0.18c-3.48-0.16-6.98,0.36-10.44-0.31c-0.37-0.08-0.75-0.12-1.13-0.11c-9.66,0.27-19.31-0.44-28.96-0.6
		c-6.48-0.11-12.98-0.03-19.44-0.43c-11.67-0.72-23.34-1.14-35.03-1.47c-17.06-0.48-34.02-2.35-50.94-4.62
		c-17.53-2.34-34.85-5.92-52.34-8.45c-6.21-0.9-12.35-2.16-18.53-3.19c-1.16-0.19-2.39-0.65-3.38,0.48"/>
	<path class="st1" d="M622.48,300.12c-4.84-1.88-9.62-3.91-14.54-5.57c-2.61-0.88-5.44-1.16-8.19-1.61
		c-12.2-1.99-24.13-5.18-36.14-8c-8.7-2.04-16.9-5.42-25.21-8.54c-0.35-0.13-0.72-0.21-1.07-0.31c-2.55-1.85-4.46-4.4-6.92-6.35
		c-0.2-0.19-0.43-0.35-0.67-0.48c-0.14-0.09-0.28-0.17-0.43-0.26c-0.12-0.1-0.25-0.19-0.38-0.28c-0.06-0.05-0.12-0.1-0.17-0.15
		c-0.1-0.11-0.22-0.21-0.33-0.31c0,0-0.16-0.15-0.16-0.15c-0.1-0.11-0.2-0.21-0.31-0.31c0,0-0.16-0.15-0.15-0.15
		c-0.1-0.11-0.2-0.21-0.31-0.31c0,0-0.16-0.15-0.15-0.15c-0.1-0.11-0.2-0.21-0.31-0.31c0,0-0.16-0.15-0.15-0.15
		c-0.1-0.11-0.2-0.21-0.31-0.31c0,0-0.16-0.15-0.16-0.16c-0.1-0.12-0.21-0.22-0.32-0.33c-0.05-0.06-0.11-0.11-0.16-0.17
		c-0.11-0.12-0.22-0.24-0.34-0.35c-0.06-0.06-0.12-0.12-0.18-0.18c-0.12-0.13-0.25-0.24-0.39-0.35c-0.15-0.12-0.3-0.23-0.45-0.34
		c-0.58-0.41-1.07-0.92-1.58-1.4c-0.12-0.13-0.26-0.26-0.4-0.37c-0.12-0.12-0.26-0.23-0.39-0.34c-0.06-0.06-0.13-0.11-0.19-0.17
		c-0.12-0.12-0.24-0.23-0.36-0.34c-0.06-0.06-0.12-0.11-0.18-0.17c-0.11-0.12-0.23-0.24-0.35-0.35c-0.06-0.06-0.12-0.12-0.18-0.18
		c-0.12-0.12-0.25-0.23-0.38-0.34c-0.13-0.11-0.27-0.22-0.4-0.32c-0.29-0.2-0.49-0.49-0.69-0.78c-0.1-0.16-0.2-0.3-0.31-0.45
		c-0.41-0.51-0.72-1.09-1.03-1.67c-0.19-0.35-0.42-0.67-0.66-0.98c-0.84-1.03-1.52-2.16-2.23-3.28
		c-11.35-15.5-20.48-32.36-30.21-48.86c-4.83-8.18-10.67-15.73-16.17-23.48c-2.49-3.51-3.91-7.47-5.56-11.34
		c-4.57-10.68-9.06-21.4-13.64-32.07c-1.35-3.15-3.96-5.49-6.08-8.13c-3.39-4.24-6.85-8.43-10.27-12.65
		c-0.47-0.58-0.93-1.21-1.58-1.6"/>
	<path class="st1" d="M732.72,306.9c-44.72-1.78-88.9-3.17-133.16-7.72c-33.98-3.12-70.5-5.86-98.08-28.47
		c-56.2-37.45-31.23-51.92-68.93-80.73"/>
	<path class="st1" d="M514.11,246.08c-14.3-33.74-28.56-67.38-44.48-100.38c-14.86-41.86-24.18-85.32-38.13-127.55"/>
	<path class="st1" d="M743.12,307.85c-3.82-0.05-7.64-0.1-11.46-0.16c-0.74-0.01-1.51,0.16-2.18-0.32
		c-7.33,0.07-14.65-0.16-21.97-0.42c-4.98-0.18-9.98-0.21-14.96-0.14c-10.28,0.14-20.55-0.23-30.81-0.53
		c-6.78-0.2-13.57-0.52-20.33-1.12c-4.96-0.44-9.93-0.67-14.9-1.04c-6.17-0.45-12.36-0.67-18.54-0.98
		c-5.43-0.27-10.85-0.58-16.28-0.86c-3.76-0.19-7.5-0.76-11.25-1.14c-3.52-0.36-7.05-0.7-10.58-1.06
		c-3.67-0.38-7.34-0.82-11.02-1.14c-6.99-0.61-13.87-1.97-20.8-2.99c-2.44-0.36-4.82-1.21-7.22-1.86c-2.76-0.75-5.52-1.53-8.28-2.32
		c-2.18-0.62-4.28-1.44-6.33-2.43c-10.34-4.98-20.53-10.27-30.61-15.75c-3.01-1.63-5.51-3.96-8.23-5.98
		c-3.21-2.38-6.36-4.86-9.54-7.28c-0.98-0.74-1.73-1.63-2.3-2.74c-5.28-10.19-10.6-20.35-15.88-30.54
		c-0.65-1.25-1.44-2.22-2.67-2.96c-5.31-3.18-10.57-6.44-15.85-9.66"/>
	<path class="st1" d="M647.86,306.96c-46.25-3.32-94.52,0.89-139.24-12.78l0.04,0.01c-0.39-0.39-1.03-0.02-1.4-0.47l0.04,0.02
		c-0.39-0.4-1.03-0.03-1.4-0.47l0.03,0.02c-25.3-8.1-50.3-20.14-74.8-29.5"/>
	<path class="st1" d="M624.36,301.34c-0.03-0.1-0.06-0.19-0.11-0.28c-1.08-0.15-2.24,0.21-3.23-0.5c-3.18-0.04-6.29-0.71-9.43-1.05
		c-4.12-0.45-8.2-1.19-12.32-1.62c-6-0.62-11.93-1.67-17.83-2.91c-8.63-1.81-17.27-3.51-25.89-5.35c-2.42-0.52-4.78-1.38-7.16-2.1
		c-1.95-0.59-3.88-1.26-5.84-1.77c-3.55-0.92-6.75-2.42-9.69-4.68c-4-3.08-8.2-5.92-12.31-8.86c-0.81-0.58-1.5-1.27-2.12-2.03
		c-4.8-5.91-9.56-11.87-14.41-17.74c-4.19-5.08-7.64-10.68-11.24-16.16c-7.18-10.92-15-21.36-22.89-31.76
		c-2.2-2.9-4.14-5.88-5.62-9.23c-4.85-10.97-9.88-21.86-14.79-32.81c-0.73-1.64-1.88-2.9-2.99-4.22
		c-4.62-5.48-9.26-10.94-13.91-16.4c-0.44-0.51-0.96-0.96-1.44-1.43"/>
	<path class="st1" d="M515.71,253.45c0.07-0.68-0.25-1.25-0.48-1.85c-0.81-1.42-1.63-2.83-2.25-4.34c-0.08-0.17-0.17-0.33-0.26-0.49
		c-0.13-0.23-0.27-0.45-0.4-0.67c-0.07-0.15-0.15-0.29-0.23-0.43c-0.11-0.21-0.23-0.41-0.33-0.63c-0.06-0.15-0.13-0.29-0.21-0.43
		c-0.11-0.22-0.21-0.45-0.31-0.68c-0.06-0.17-0.14-0.33-0.21-0.5c-0.11-0.28-0.22-0.55-0.35-0.82
		c-6.51-12.36-13.16-24.65-19.53-37.08c-7.21-14.07-15.71-27.38-23.65-41.02c-2.33-3.99-3.43-8.54-5.05-12.85
		c-4.14-11.03-8.24-22.08-12.32-33.13c-0.52-1.42-1.11-2.81-1.99-4.06c-5.06-7.25-9.93-14.62-15.03-21.84
		c-0.51-0.72-0.89-1.63-1.98-1.67"/>
	<path class="st1" d="M573.03,296.04c-5.29-0.84-10.58-1.69-15.87-2.53c-5.08-0.81-9.95-2.48-14.96-3.56
		c-3.51-0.76-6.74-2.09-9.84-3.87c-3.74-2.13-7.57-4.09-11.36-6.14c-0.73-0.39-1.48-0.75-2.08-1.35
		c-6.33-6.27-13.1-12.13-18.97-18.84c-10.73-12.29-21.47-24.57-32.54-36.57c-0.78-0.85-1.36-1.79-1.86-2.82
		c-5.23-10.88-10.49-21.75-15.7-32.64c-0.79-1.65-1.75-3.14-2.94-4.53c-4.92-5.73-9.78-11.51-14.67-17.27
		c-0.34-0.4-0.73-0.76-1.1-1.13"/>
	<path class="st1" d="M512.73,245.69c-3.8-8.44-7.48-16.58-11.34-24.95c-1.79-3.89-4.11-8.03-5.89-12.24
		c-0.25-0.1-0.28-0.77-0.45-0.89c-27.23-44.58-37.46-97.36-63.93-141.41"/>
	<path class="st1" d="M459.65,129.19c-0.48-2.6-1.48-5.06-2.22-7.59c-7.76-26.27-16.87-52.1-25.65-78.04
		c-0.17-0.49-0.2-1.05-0.63-1.43"/>
	<path class="st1" d="M488.22,287.05c0.11-0.11,0.15-0.22,0.11-0.32c-0.04-0.1-0.08-0.16-0.12-0.16
		c-7.34-2.83-13.94-7.14-20.93-10.65c-0.96-0.48-1.4-1.33-1.89-2.17c-5.09-8.72-10.22-17.42-15.21-26.2
		c-1.04-1.84-2.34-2.93-4.32-3.58c-4.93-1.63-9.81-3.42-14.71-5.15"/>
</g>
</svg>
