<?xml version="1.0" encoding="utf-8"?>
<!-- Generator: Adobe Illustrator 26.5.0, SVG Export Plug-In . SVG Version: 6.00 Build 0)  -->
<svg version="1.1" id="Camada_1" xmlns="http://www.w3.org/2000/svg" xmlns:xlink="http://www.w3.org/1999/xlink" x="0px" y="0px"
	 viewBox="0 0 841.89 595.28" style="enable-background:new 0 0 841.89 595.28;" xml:space="preserve">
<style type="text/css">
	.st0{fill:#020203;}
	.st1{fill:#FFFFFF;stroke:#020203;stroke-miterlimit:10;}
	.st2{fill:none;stroke:#020203;stroke-miterlimit:10;stroke-dasharray:30;}
	.st3{fill:none;}
	.st4{fill:#FFFFFF;}
	.st5{fill:none;stroke:#020203;stroke-miterlimit:10;}
	.st6{fill:none;stroke:#020203;stroke-miterlimit:10;stroke-dasharray:20;}
	.st7{stroke:#FFFFFF;stroke-width:1.5;stroke-miterlimit:10;}
	.st8{stroke:#FFFFFF;stroke-width:2;stroke-miterlimit:10;}
</style>
<g>
	<path class="st0" d="M319.48,162.3c45.87,0,89,17.86,121.44,50.3c32.44,32.44,50.3,75.56,50.3,121.44s-17.86,89-50.3,121.44
		c-32.44,32.44-75.56,50.3-121.44,50.3s-89-17.86-121.44-50.3c-32.44-32.44-50.3-75.56-50.3-121.44s17.86-89,50.3-121.44
		C230.48,180.16,273.61,162.3,319.48,162.3 M319.48,161.3c-95.4,0-172.74,77.34-172.74,172.74s77.34,172.74,172.74,172.74
		s172.74-77.34,172.74-172.74S414.88,161.3,319.48,161.3L319.48,161.3z"/>
</g>
<g>
	<path class="st0" d="M687.99,73.72c36.08,0,65.44,29.36,65.44,65.44s-29.36,65.44-65.44,65.44s-65.44-29.36-65.44-65.44
		S651.91,73.72,687.99,73.72 M687.99,72.72c-36.69,0-66.44,29.75-66.44,66.44s29.75,66.44,66.44,66.44s66.44-29.75,66.44-66.44
		S724.68,72.72,687.99,72.72L687.99,72.72z"/>
</g>
<line class="st1" x1="680.67" y1="73.12" x2="276.84" y2="166.61"/>
<line class="st1" x1="734.87" y1="186.23" x2="419.82" y2="474.66"/>
<path class="st2" d="M507.77,418.72c-32.33,71.76-104.47,121.72-188.28,121.72c-113.99,0-206.4-92.41-206.4-206.4
	s92.41-206.4,206.4-206.4c13.06,0,25.83,1.21,38.22,3.53"/>
<path id="SVGID_x5F_1_x5F_" class="st3" d="M361.35,115.5c-13.34-2.5-27.1-3.8-41.17-3.8c-122.8,0-222.35,99.55-222.35,222.35
	s99.55,222.35,222.35,222.35c90.29,0,168.01-53.82,202.83-131.12"/>
<text><textPath  xlink:href="#SVGID_x5F_1_x5F_" startOffset="48.0132%">
<tspan  class="st0" style="font-family:'Georgia'; font-size:36px;">geoengenharia</tspan></textPath>
</text>
<g>
	<line class="st4" x1="592.42" y1="189.7" x2="617.25" y2="176.57"/>
	<g>
		<line class="st5" x1="592.42" y1="189.7" x2="611.97" y2="179.36"/>
		<g>
			<polygon class="st0" points="611.22,183.94 610.88,179.93 607.76,177.4 617.25,176.57 			"/>
		</g>
	</g>
</g>
<line class="st1" x1="405.77" y1="288.41" x2="478.71" y2="249.83"/>
<path id="SVGID_x5F_00000064333066190150938060000018316320976114196891_x5F_" class="st3" d="M740.55,189.83L425.5,478.25"/>
<text><textPath  xlink:href="#SVGID_x5F_00000064333066190150938060000018316320976114196891_x5F_" startOffset="25.317%">
<tspan  class="st0" style="font-family:'TimesNewRomanPSMT'; font-size:28px;">imperialismo</tspan></textPath>
</text>
<path class="st6" d="M655.48,71.94c9.83-4.76,20.86-7.43,32.51-7.43c41.23,0,74.65,33.42,74.65,74.65
	c0,25.77-13.05,48.48-32.91,61.9"/>
<g>
	<path class="st7" d="M691.45,132.67c5.42-5.42,10.83-10.83,16.25-16.25c-2.23,0-4.49,0-6.78,0c0-1.34,0-2.64,0-3.96
		c4.57,0,9.12,0,13.7,0c0,4.56,0,9.11,0,13.69c-1.3,0-2.6,0-3.94,0c0-2.26,0-4.52,0-6.71c-5.4,5.4-10.81,10.81-16.24,16.24
		c6.41,8.05,4.89,19.47-2.7,25.83c-7.28,6.1-18.11,5.64-24.98-1.12c-6.8-6.7-7.33-17.62-1.23-25
		C671.79,127.8,683.27,126.15,691.45,132.67z M679.86,132.6c-8.04,0-14.59,6.56-14.6,14.6c-0.01,8.03,6.54,14.59,14.59,14.62
		c8.03,0.02,14.64-6.58,14.62-14.62C694.45,139.15,687.89,132.6,679.86,132.6z"/>
</g>
<g>
	<path class="st8" d="M267.84,334.11c-0.02-28.51,23.08-51.61,51.59-51.6c28.5,0.01,51.55,23.05,51.57,51.56
		c0.03,28.51-23.08,51.62-51.59,51.6C290.91,385.67,267.86,362.62,267.84,334.11z M316.46,288.41
		c-12.59,1.04-23.13,6.13-31.46,15.57c-6.83,7.74-10.49,16.84-11.25,27.14c14.31,0,28.5,0,42.71,0
		C316.46,316.89,316.46,302.7,316.46,288.41z M322.39,288.49c0,14.23,0,28.42,0,42.63c14.24,0,28.44,0,42.65,0
		C363.88,308.27,344.67,289.53,322.39,288.49z M322.37,379.76c6.99-0.47,13.49-2.37,19.53-5.81c8.26-4.7,14.5-11.34,18.69-19.87
		c2.63-5.36,4.1-11.03,4.49-17.01c-14.28,0-28.48,0-42.7,0C322.37,351.3,322.37,365.47,322.37,379.76z M273.74,337.06
		c0.89,11.44,5.24,21.27,13.32,29.36c8.09,8.1,17.94,12.46,29.39,13.36c0-14.29,0-28.5,0-42.71
		C302.22,337.06,288.03,337.06,273.74,337.06z"/>
</g>
<g>
	<path class="st5" d="M559.37,194.02c0.16-1.78,0.8-3.11,1.93-3.71c2.97-1.59,8.22,2.43,11.73,8.98c3.51,6.55,3.95,13.15,0.98,14.74
		c-1.13,0.61-2.59,0.4-4.16-0.45"/>
	<line class="st5" x1="570.21" y1="185.41" x2="560.96" y2="190.48"/>
	<line class="st5" x1="573.73" y1="214.31" x2="583.02" y2="209.33"/>
	<path class="st5" d="M570.21,185.41l5.73-1.1l0.41-0.15c6.78-1.65,13.2,0.14,15.76,4.91c2.56,4.77,0.48,11.11-4.64,15.84l2.13-2.27
		l-6.57,6.68"/>
	<path class="st5" d="M575.36,184.42c0.33-0.1,0.66-0.19,1-0.27"/>
	<path class="st5" d="M507.28,247.05l0.4,9.86c0,0-0.91,0.86-1.97,1.43c-1.07,0.57-2.46,0.95-2.46,0.95l-7.99-5.79L507.28,247.05z"
		/>
	<path class="st5" d="M496.84,227.56l-7.99-5.79c0,0-1.22,0.28-2.29,0.85c-1.07,0.57-2.15,1.53-2.15,1.53l0.4,9.86L496.84,227.56z"
		/>
	<path class="st5" d="M482.39,249.26l-2.34,2.14c0,0-0.65-0.29-1.33-1.55c-0.67-1.26-0.6-2.05-0.6-2.05l3.08-0.76"/>
	<line class="st5" x1="484.91" y1="233.95" x2="559.39" y2="194.06"/>
	<path class="st5" d="M484.96,234.04c-0.35,0.11-0.69,0.26-1.01,0.43c-4.07,2.18-5.01,8.32-2.12,13.72c2.89,5.4,8.54,8.02,12.6,5.84
		c0.33-0.18,0.64-0.38,0.92-0.6l74.52-39.86c2.44-1.96,2.31-7.27-0.41-12.36c-2.73-5.1-7.09-8.15-10.07-7.19"/>
	<line class="st5" x1="575.94" y1="184.31" x2="579.42" y2="183.64"/>
</g>
<path id="SVGID_x5F_00000103958681315656788330000013546126954296951684_x5F_" class="st3" d="M655.48,71.94
	c9.83-4.76,20.86-7.43,32.51-7.43c41.23,0,74.65,33.42,74.65,74.65c0,25.77-13.05,48.48-32.91,61.9"/>
<text><textPath  xlink:href="#SVGID_x5F_00000103958681315656788330000013546126954296951684_x5F_" startOffset="16.4063%">
<tspan  class="st0" style="font-family:'Georgia'; font-size:21px;">terraformação</tspan></textPath>
</text>
<path id="SVGID_x5F_00000012454970496085892880000006252476825715511939_x5F_" class="st3" d="M680.67,70.12l-403.83,93.49"/>
<text><textPath  xlink:href="#SVGID_x5F_00000012454970496085892880000006252476825715511939_x5F_" startOffset="8.8257%">
<tspan  style="font-family:'TimesNewRomanPSMT'; font-size:28px;">capitalismo</tspan></textPath>
</text>
</svg>
