<?xml version="1.0" encoding="utf-8"?>
<!-- Generator: Adobe Illustrator 26.5.0, SVG Export Plug-In . SVG Version: 6.00 Build 0)  -->
<svg version="1.1" id="Camada_1" xmlns="http://www.w3.org/2000/svg" xmlns:xlink="http://www.w3.org/1999/xlink" x="0px" y="0px"
	 viewBox="0 0 841.89 683.74" style="enable-background:new 0 0 841.89 683.74;" xml:space="preserve">
<style type="text/css">
	.st0{fill:#231F20;stroke:#FFFFFF;stroke-width:0.75;stroke-miterlimit:10;}
	.st1{fill:none;stroke:#595A5C;stroke-width:0.5;stroke-miterlimit:10;}
	.st2{fill:none;stroke:#231F20;stroke-miterlimit:10;}
	.st3{fill:none;stroke:#231F20;stroke-width:0.25;stroke-miterlimit:10;stroke-dasharray:11.8405,11.8405;}
	.st4{fill:none;stroke:#231F20;stroke-width:0.25;stroke-miterlimit:10;stroke-dasharray:11.9914,11.9914;}
	.st5{fill:none;stroke:#231F20;stroke-width:0.25;stroke-miterlimit:10;stroke-dasharray:11.7314,11.7314;}
	.st6{fill:none;stroke:#231F20;stroke-width:0.25;stroke-miterlimit:10;stroke-dasharray:12.0584,12.0584;}
	.st7{fill:none;}
	.st8{fill:#929497;}
	.st9{font-family:'MarkaziText-Regular';}
	.st10{font-size:14px;}
	.st11{fill:none;stroke:#A6A8AB;stroke-miterlimit:10;}
	.st12{fill:#A6A8AB;}
	.st13{fill:none;stroke:#020203;stroke-width:0.5;stroke-miterlimit:10;}
</style>
<polygon class="st0" points="349.34,105.95 348.29,113.78 355.59,110.78 "/>
<polygon class="st0" points="622.06,169.51 614.44,171.56 620.02,177.14 "/>
<polygon class="st0" points="280.47,148.1 281.59,155.91 287.8,151.03 "/>
<polygon class="st0" points="395.79,344.09 402.85,347.65 402.4,339.76 "/>
<polygon class="st0" points="325.46,402.74 333.35,402.74 329.41,395.9 "/>
<polygon class="st0" points="326.53,475.87 333.91,473.05 327.78,468.07 "/>
<polygon class="st0" points="360.09,571.03 366.15,565.96 358.73,563.25 "/>
<polygon class="st0" points="456.18,398.93 448.41,400.35 453.52,406.37 "/>
<polygon class="st0" points="491.04,328.5 491.67,336.38 498.17,331.89 "/>
<polygon class="st0" points="346.9,299.91 352.02,305.93 354.67,298.49 "/>
<polygon class="st0" points="446.97,244.62 454.8,245.62 451.76,238.34 "/>
<path class="st1" d="M239.35,171.95c37.23-45.02,89.41-77.23,148.92-89.03"/>
<path class="st1" d="M399.65,592.61c-31.14-4.74-60.46-15.02-86.92-29.82"/>
<path class="st1" d="M686.09,413.57c-18.83,60.68-59.39,111.8-112.57,144.26"/>
<path class="st1" d="M555.89,105.88c53.7,27.27,96.62,72.73,120.63,128.26"/>
<circle class="st2" cx="438.88" cy="336.77" r="142.36"/>
<circle class="st2" cx="438.88" cy="336.77" r="73.9"/>
<g>
	<circle class="st3" cx="438.88" cy="336.77" r="105.53"/>
</g>
<g>
	<circle class="st4" cx="438.88" cy="336.77" r="190.84"/>
</g>
<g>
	<circle class="st5" cx="438.88" cy="336.77" r="48.56"/>
</g>
<g>
	<circle class="st6" cx="438.88" cy="336.77" r="61.42"/>
</g>
<polyline class="st1" points="676.53,234.14 438.88,336.77 686.36,413.65 "/>
<polyline class="st1" points="573.66,558.07 438.88,336.77 399.6,592.89 "/>
<polyline class="st1" points="294.18,461.21 438.88,336.77 179.81,336.77 "/>
<polyline class="st1" points="239.14,171.77 438.88,336.77 388.22,82.65 "/>
<polyline class="st1" points="304.95,114.96 438.88,336.77 486.15,243.51 556.02,105.63 "/>
<line class="st1" x1="438.88" y1="336.77" x2="312.59" y2="563.04"/>
<line class="st1" x1="438.88" y1="336.77" x2="304.65" y2="385.85"/>
<g>
	<path id="SVGID_x5F_1_x5F_" class="st7" d="M457.8,195.68c77.92,10.45,132.62,82.09,122.18,160.01
		c-10.45,77.92-82.09,132.62-160.01,122.18s-132.62-82.09-122.18-160.01C308.23,239.93,379.87,185.23,457.8,195.68z"/>
	<text>	<textPath  xlink:href="#SVGID_x5F_1_x5F_" startOffset="908.6913%">
<tspan  style="fill:#231F20; font-size:21px;">zona de incerteza</tspan>	</textPath>
</text>
</g>
<g>
	<path id="SVGID_x5F_00000142162442865195717020000017556151254819344816_x5F_" class="st7" d="M417.2,266.13
		c39.02-11.97,80.35,9.95,92.32,48.97s-9.95,80.35-48.97,92.32c-39.02,11.97-80.35-9.95-92.32-48.97
		C356.26,319.43,378.19,278.1,417.2,266.13z"/>
	<text>	<textPath  xlink:href="#SVGID_x5F_00000142162442865195717020000017556151254819344816_x5F_" startOffset="5307.021%">
<tspan  style="fill:#231F20; font-size:21px;">zona de segurança</tspan>	</textPath>
</text>
</g>
<path id="SVGID_x5F_00000020364670418172846470000001989896655969786015_x5F_" class="st7" d="M279.5,173.77
	c90.02-88.02,234.36-86.4,322.38,3.62s86.4,234.36-3.62,322.38s-234.36,86.4-322.38-3.62S189.48,261.8,279.5,173.77z"/>
<text><textPath  xlink:href="#SVGID_x5F_00000020364670418172846470000001989896655969786015_x5F_" startOffset="132.315%">
<tspan  style="fill:#231F20; font-size:21px;">zona de alto risco</tspan></textPath>
</text>
<path id="SVGID_x5F_00000134963748739766077340000017767559045373967236_x5F_" class="st7" d="M708.7,336.77
	c0,149.02-120.8,269.82-269.82,269.82s-269.82-120.8-269.82-269.82S289.86,66.95,438.88,66.95S708.7,187.76,708.7,336.77z"/>
<text><textPath  xlink:href="#SVGID_x5F_00000134963748739766077340000017767559045373967236_x5F_" startOffset="90.3123%">
<tspan  style="fill:#231F20; font-size:18px;">genética</tspan></textPath>
</text>
<path id="SVGID_x5F_00000052086673893099622630000006495448289010492850_x5F_" class="st7" d="M743.27,336.77
	c0,168.11-136.28,304.39-304.39,304.39S134.49,504.88,134.49,336.77S270.77,32.39,438.88,32.39S743.27,168.66,743.27,336.77z"/>
<text><textPath  xlink:href="#SVGID_x5F_00000052086673893099622630000006495448289010492850_x5F_" startOffset="483.021%">
<tspan  style="fill:#231F20; font-size:21px;">integridade da biosfera</tspan></textPath>
</text>
<path class="st2" d="M438.88,336.77"/>
<path id="SVGID_x5F_00000160907364360769415610000004397819550700695481_x5F_" class="st7" d="M722.97,336.77
	c0,156.9-127.19,284.09-284.09,284.09S154.79,493.67,154.79,336.77S281.98,52.68,438.88,52.68S722.97,179.87,722.97,336.77z"/>
<text><textPath  xlink:href="#SVGID_x5F_00000160907364360769415610000004397819550700695481_x5F_" startOffset="89.7137%">
<tspan  style="fill:#231F20; font-size:18px;">diversidade</tspan></textPath>
</text>
<path id="SVGID_x5F_00000105384594874191478660000011773619981822103483_x5F_" class="st7" d="M708.7,336.77
	c0,149.02-120.8,269.82-269.82,269.82s-269.82-120.8-269.82-269.82S289.86,66.95,438.88,66.95S708.7,187.76,708.7,336.77z"/>
<text><textPath  xlink:href="#SVGID_x5F_00000105384594874191478660000011773619981822103483_x5F_" startOffset="82.6957%">
<tspan  style="fill:#231F20; font-size:18px;">funcional</tspan></textPath>
</text>
<path id="SVGID_x5F_00000176010437428868126950000001221157027729113259_x5F_" class="st7" d="M722.97,336.77
	c0,156.9-127.19,284.09-284.09,284.09S154.79,493.67,154.79,336.77S281.98,52.68,438.88,52.68S722.97,179.87,722.97,336.77z"/>
<text><textPath  xlink:href="#SVGID_x5F_00000176010437428868126950000001221157027729113259_x5F_" startOffset="215.7687%">
<tspan  style="fill:#231F20; font-size:18px;">diversidade</tspan></textPath>
</text>
<path id="SVGID_x5F_00000145034026248073140550000015208381039788465797_x5F_" class="st7" d="M708.7,336.77
	c0,149.02-120.8,269.82-269.82,269.82s-269.82-120.8-269.82-269.82S289.86,66.95,438.88,66.95S708.7,187.76,708.7,336.77z"/>
<text><textPath  xlink:href="#SVGID_x5F_00000145034026248073140550000015208381039788465797_x5F_" startOffset="178.7317%">
<tspan  style="fill:#231F20; font-size:18px;">fósforo (p)</tspan></textPath>
</text>
<path id="SVGID_x5F_00000057838155236744368880000001095457840566344333_x5F_" class="st7" d="M708.7,336.77
	c0,149.02-120.8,269.82-269.82,269.82s-269.82-120.8-269.82-269.82S289.86,66.95,438.88,66.95S708.7,187.76,708.7,336.77z"/>
<text><textPath  xlink:href="#SVGID_x5F_00000057838155236744368880000001095457840566344333_x5F_" startOffset="1103.6704%">
<tspan  style="fill:#231F20; font-size:18px;">nitrogênio (N)</tspan></textPath>
</text>
<path id="SVGID_x5F_00000178196838678612288110000001503191817236833704_x5F_" class="st7" d="M743.27,336.77
	c0,168.11-136.28,304.39-304.39,304.39S134.49,504.88,134.49,336.77S270.77,32.39,438.88,32.39S743.27,168.66,743.27,336.77z"/>
<text><textPath  xlink:href="#SVGID_x5F_00000178196838678612288110000001503191817236833704_x5F_" startOffset="171.5807%">
<tspan  style="fill:#231F20; font-size:21px;">ciclos biogeoquímicos</tspan></textPath>
</text>
<path id="SVGID_x5F_00000083053667304847165680000010239266412176298145_x5F_" class="st7" d="M690.32,165.23
	c94.74,138.87,58.97,328.25-79.89,422.99s-328.25,58.97-422.99-79.89s-58.97-328.25,79.89-422.99S595.58,26.36,690.32,165.23z"/>
<text><textPath  xlink:href="#SVGID_x5F_00000083053667304847165680000010239266412176298145_x5F_" startOffset="126.5057%">
<tspan  style="fill:#231F20; font-size:21px;">novas entidades</tspan></textPath>
</text>
<g>
	<path id="SVGID_x5F_00000052824913530060739890000010586688728777425830_x5F_" class="st7" d="M722.97,336.77
		c0,156.9-127.19,284.09-284.09,284.09S154.79,493.67,154.79,336.77S281.98,52.68,438.88,52.68S722.97,179.87,722.97,336.77z"/>
	<text>	<textPath  xlink:href="#SVGID_x5F_00000052824913530060739890000010586688728777425830_x5F_" startOffset="129.1937%">
<tspan  style="fill:#020203; font-size:21px;">estratosférico</tspan>	</textPath>
</text>
</g>
<path id="SVGID_x5F_00000058591033483080317200000013599427159783631264_x5F_" class="st7" d="M740.42,295.24
	c22.94,166.54-93.47,320.13-260.01,343.07c-166.54,22.94-320.13-93.47-343.07-260.01S230.81,58.17,397.35,35.23
	S717.48,128.7,740.42,295.24z"/>
<text><textPath  xlink:href="#SVGID_x5F_00000058591033483080317200000013599427159783631264_x5F_" startOffset="12.1093%">
<tspan  style="fill:#020203; font-size:21px;">carga de aerossóis</tspan></textPath>
</text>
<g>
	<path id="SVGID_x5F_00000072244739447937219110000014316261472933040522_x5F_" class="st7" d="M721.49,311.5
		c13.96,156.08-101.25,293.92-257.33,307.88c-156.08,13.96-293.92-101.25-307.88-257.33S257.53,68.13,413.6,54.17
		S707.53,155.42,721.49,311.5z"/>
	<text>	<textPath  xlink:href="#SVGID_x5F_00000072244739447937219110000014316261472933040522_x5F_" startOffset="12.1093%">
<tspan  style="fill:#020203; font-size:21px;">na atmosfera</tspan>	</textPath>
</text>
</g>
<path id="SVGID_x5F_00000116915957648706958810000002041535971226148249_x5F_" class="st7" d="M694.08,502.67
	c-91.62,140.94-280.16,180.93-421.1,89.3s-180.93-280.16-89.3-421.1s280.16-180.93,421.1-89.3S785.71,361.73,694.08,502.67z"/>
<text><textPath  xlink:href="#SVGID_x5F_00000116915957648706958810000002041535971226148249_x5F_" startOffset="277.295%">
<tspan  style="fill:#020203; font-size:21px;">acidificação dos oceanos</tspan></textPath>
</text>
<path id="SVGID_x5F_00000079487684194114214140000015792807344406103957_x5F_" class="st7" d="M308.84,611.98
	C156.85,540.16,91.85,358.73,163.67,206.73S416.93-10.26,568.92,61.56s216.99,253.26,145.17,405.25S460.83,683.8,308.84,611.98z"/>
<text><textPath  xlink:href="#SVGID_x5F_00000079487684194114214140000015792807344406103957_x5F_" startOffset="12.1093%">
<tspan  style="fill:#020203; font-size:21px;">uso de água doce</tspan></textPath>
</text>
<path id="SVGID_x5F_00000054237561315284850830000012574281731871003278_x5F_" class="st7" d="M163.48,466.4
	c-71.59-152.1-6.32-333.44,145.78-405.03s333.44-6.32,405.03,145.78s6.32,333.44-145.78,405.03S235.07,618.5,163.48,466.4z"/>
<text><textPath  xlink:href="#SVGID_x5F_00000054237561315284850830000012574281731871003278_x5F_" startOffset="12.1093%">
<tspan  style="fill:#020203; font-size:21px;">mudança no uso</tspan></textPath>
</text>
<g>
	<path id="SVGID_x5F_00000025437154904219116560000000696866686937076397_x5F_" class="st7" d="M171.38,431.36
		c-52.24-147.74,25.17-309.85,172.91-362.09s309.85,25.17,362.09,172.91c52.24,147.74-25.17,309.85-172.91,362.09
		C385.73,656.52,223.62,579.1,171.38,431.36z"/>
	<text>	<textPath  xlink:href="#SVGID_x5F_00000025437154904219116560000000696866686937076397_x5F_" startOffset="12.1093%">
<tspan  style="fill:#020203; font-size:21px;">da terra</tspan>	</textPath>
</text>
</g>
<path id="SVGID_x5F_00000127043940822732639280000018221049866380096653_x5F_" class="st7" d="M249.74,98.28
	C381.46-6.18,572.91,15.92,677.37,147.63s82.36,323.17-49.35,427.63s-323.17,82.36-427.63-49.35S118.03,202.74,249.74,98.28z"/>
<text><textPath  xlink:href="#SVGID_x5F_00000127043940822732639280000018221049866380096653_x5F_" startOffset="12.4267%">
<tspan  style="fill:#020203; font-size:21px;">mudança climática</tspan></textPath>
</text>
<path id="SVGID_x5F_00000077315040487772986580000001358407079668829090_x5F_" class="st7" d="M638.03,518.82
	c-100.54,109.99-271.21,117.64-381.2,17.1s-117.64-271.21-17.1-381.2s271.21-117.64,381.2-17.1S738.57,408.84,638.03,518.82z"/>
<text><textPath  xlink:href="#SVGID_x5F_00000077315040487772986580000001358407079668829090_x5F_" startOffset="1103.6704%">
<tspan  style="fill:#231F20; font-size:18px;">água verde</tspan></textPath>
</text>
<path id="SVGID_x5F_00000056407739543362557740000001982321172431121591_x5F_" class="st7" d="M556.31,579.7
	c-134.16,64.86-295.5,8.67-360.36-125.49s-8.67-295.5,125.49-360.36s295.5-8.67,360.36,125.49S690.48,514.84,556.31,579.7z"/>
<text><textPath  xlink:href="#SVGID_x5F_00000056407739543362557740000001982321172431121591_x5F_" startOffset="1103.6704%">
<tspan  style="fill:#231F20; font-size:18px;">água azul</tspan></textPath>
</text>
<path id="SVGID_x5F_00000155141479838459240240000005805190598991622328_x5F_" class="st7" d="M646.52,114.2
	c122.92,114.68,129.61,307.29,14.93,430.21s-307.29,129.61-430.21,14.93s-129.61-307.29-14.93-430.21S523.6-0.47,646.52,114.2z"/>
<text><textPath  xlink:href="#SVGID_x5F_00000155141479838459240240000005805190598991622328_x5F_" startOffset="12.1093%">
<tspan  style="fill:#020203; font-size:21px;">depleção do ozônio</tspan></textPath>
</text>
<g>
	<rect x="133.42" y="324.54" class="st7" width="131.74" height="41.36"/>
	<text transform="matrix(1 0 0 1 134.4219 332.165)" class="st8 st9 st10">risco aumentando</text>
</g>
<g>
	<path id="SVGID_x5F_00000005946719395172132510000003037598228364522902_x5F_" class="st7" d="M656.69,389.08
		c-18.83,60.68-59.39,111.8-112.57,144.26"/>
	<text>	<textPath  xlink:href="#SVGID_x5F_00000005946719395172132510000003037598228364522902_x5F_" startOffset="21.447%">
<tspan  class="st8 st9 st10">ainda não quantificado</tspan>	</textPath>
</text>
</g>
<g>
	<line class="st8" x1="126.81" y1="336.77" x2="438.88" y2="336.77"/>
	<g>
		<line class="st11" x1="130.39" y1="336.77" x2="438.88" y2="336.77"/>
		<g>
			<polygon class="st12" points="131.12,339.27 126.81,336.77 131.12,334.28 			"/>
		</g>
	</g>
</g>
<path class="st13" d="M250.81,75.16c13.87-9.99,28.57-18.91,43.97-26.63"/>
<path class="st13" d="M126.36,258.59c3.6-14.49,8.19-28.59,13.68-42.22"/>
<path class="st13" d="M307.35,630.6c-17.06-7.64-33.33-16.72-48.66-27.09"/>
<path class="st13" d="M533.74,644.38c-16.31,5.02-33.18,8.78-50.48,11.17"/>
<path class="st13" d="M660.42,102.94c9.72,9.22,18.86,19.04,27.37,29.39"/>
<path class="st13" d="M460.06,15.27c16.46,1.07,32.59,3.38,48.29,6.83"/>
</svg>
